:SAMPLES-PER-SECOND 30
:FULLY-SPECIFIED
:DEGREES
496
root  62.6846 37.4694 1.79948 -19.2723 82.1983 -13.0834
RightUpLeg  17.0968 -7.01046 2.06531
RightLeg  17.2739 11.7778 3.65071
RightFoot  -21.5606 -0.589621 -4.95231
RightToes  -1.16417e-010 0 -3.6325e-017
Spine  3.17566 2.7358 13.9291
Spine1  9.94628 5.55841 -8.98465
HEad  -13.5452 -1.0537 -0.879971
LeftShoulder1  -0.645742 5.08527 -34.6519
LeftArm  18.5775 14.7257 -39.2753
LeftForeArm  17.1477 -22.9274 -4.11717
LeftHand  -0.0790006 8.38402 -1.22522
RightShoulder  -0.945423 -6.12203 29.5271
RightArm  24.5073 11.8886 51.1945
RightForeArm  12.6344 16.1941 6.29153
RightHand  0.0657175 3.69221 0.541403
LeftUpLeg  -18.7782 5.42643 0.658962
LeftLeg  7.76973 7.50428 0.266588
LeftFoot  4.76118 0.111884 -1.44916
LeftToes  3.13772e-010 -3.14513e-011 3.96022e-013
497
root  63.9741 37.476 1.85072 -6.62793 80.6486 -0.799866
RightUpLeg  18.2549 -5.42516 0.00391114
RightLeg  17.8959 12.3015 3.90354
RightFoot  -21.4303 -0.437708 -3.33309
RightToes  -1.16417e-010 0 -3.6325e-017
Spine  1.90769 3.20425 11.5637
Spine1  10.3332 6.07527 -9.53102
HEad  -13.03 -2.04661 0.112345
LeftShoulder1  -0.719764 5.26211 -34.7522
LeftArm  17.5417 12.744 -38.5882
LeftForeArm  16.8214 -22.014 -4.50712
LeftHand  -0.080289 9.15791 -0.841729
RightShoulder  -1.01109 -6.24738 30.2908
RightArm  19.243 8.89854 51.4137
RightForeArm  20.0481 9.03863 8.45857
RightHand  0.0466068 3.09907 0.39881
LeftUpLeg  -18.307 4.88384 -0.687435
LeftLeg  8.36347 9.3825 0.468485
LeftFoot  11.8689 -0.910914 4.25047
LeftToes  3.13772e-010 -3.14513e-011 3.96022e-013
498
root  65.3102 37.4259 1.9061 5.98726 80.1696 11.5121
RightUpLeg  18.3234 -4.31524 -2.7012
RightLeg  21.0392 12.1039 4.88633
RightFoot  -21.2734 -0.226125 -0.982314
RightToes  -1.16417e-010 0 -3.6325e-017
Spine  -0.740436 3.0883 7.90798
Spine1  12.3003 5.70716 -8.81366
HEad  -13.2211 -0.734359 -0.0889774
LeftShoulder1  -0.6937 5.1971 -34.7834
LeftArm  13.2749 8.84836 -38.5587
LeftForeArm  18.9818 -17.9575 -6.50607
LeftHand  -0.0341119 8.75524 0.412859
RightShoulder  -0.90079 -5.97304 29.8904
RightArm  14.8036 5.50856 52.7246
RightForeArm  26.7055 3.01865 8.19729
RightHand  0.0573807 1.53325 0.883223
LeftUpLeg  -19.0079 5.9223 -3.44602
LeftLeg  12.6895 7.93896 1.41881
LeftFoot  11.0481 -1.29524 6.19567
LeftToes  3.13772e-010 -3.14513e-011 3.96022e-013
499
root  66.4844 37.44 1.97742 17.4232 80.0645 23.0326
RightUpLeg  17.0467 -4.01204 -5.47474
RightLeg  27.0143 12.7129 6.75641
RightFoot  -19.2994 0.0685644 3.0739
RightToes  -1.16417e-010 0 -3.6325e-017
Spine  -0.739303 2.59491 3.59823
Spine1  11.7403 4.81438 -7.6585
HEad  -13.2938 0.0311405 -0.38012
LeftShoulder1  -0.670441 5.14178 -34.7489
LeftArm  5.21703 4.46144 -38.36
LeftForeArm  26.9628 -11.8981 -9.28028
LeftHand  -0.0525398 9.22106 0.0247491
RightShoulder  -0.961342 -6.1167 30.2218
RightArm  11.4188 0.555327 52.3959
RightForeArm  32.5621 0.423722 6.70122
RightHand  0.0728984 -0.467566 1.80014
LeftUpLeg  -18.4813 7.10122 -5.99087
LeftLeg  15.0912 6.63099 1.71125
LeftFoot  9.10789 -1.22143 6.4612
LeftToes  3.13772e-010 -3.14513e-011 3.96022e-013
500
root  67.4876 37.5095 1.98072 23.8742 78.6932 29.844
RightUpLeg  13.8389 -2.82939 -8.18547
RightLeg  35.6099 13.026 9.61982
RightFoot  -14.3496 0.138862 9.28963
RightToes  -1.16417e-010 0 -3.6325e-017
Spine  0.110493 2.4617 0.599706
Spine1  11.3847 4.50379 -7.83864
HEad  -14.0271 0.877435 -0.951434
LeftShoulder1  -0.708535 5.23125 -34.8315
LeftArm  -1.12382 -0.455284 -38.4551
LeftForeArm  34.1491 -6.05278 -10.351
LeftHand  -0.12925 10.7248 -1.49432
RightShoulder  -0.937258 -6.06624 29.9941
RightArm  9.97443 -4.35805 51.3389
RightForeArm  32.6418 0.263907 6.04574
RightHand  0.070099 1.1994 1.09901
LeftUpLeg  -16.975 7.23397 -7.56451
LeftLeg  16.0818 7.54229 1.79801
LeftFoot  7.2861 -1.2168 7.13376
LeftToes  3.13772e-010 -3.14513e-011 3.96022e-013
501
root  68.3485 37.579 1.90654 23.6773 76.2455 30.4297
RightUpLeg  8.97995 0.0186691 -10.2921
RightLeg  45.6536 12.3052 12.8824
RightFoot  -6.86879 -0.611249 14.1801
RightToes  -1.16417e-010 0 -3.6325e-017
Spine  2.35789 2.57215 -0.683155
Spine1  10.3162 4.61309 -9.02789
HEad  -14.7608 1.7392 -1.72667
LeftShoulder1  -0.671203 5.14112 -34.8124
LeftArm  -1.81762 -4.51802 -38.5727
LeftForeArm  36.5823 -3.17251 -10.5479
LeftHand  -0.164163 11.0532 -2.04035
RightShoulder  -0.892131 -6.00006 29.1565
RightArm  9.57001 -8.60746 50.1062
RightForeArm  31.5948 2.46505 5.71051
RightHand  0.123707 2.00493 1.78609
LeftUpLeg  -15.0743 7.17877 -8.21731
LeftLeg  16.9674 9.99676 1.97721
LeftFoot  5.21758 -1.06562 7.09132
LeftToes  3.13772e-010 -3.14513e-011 3.96022e-013
